<?xml version="1.0" encoding="utf-8"?>
<!-- Svg Vector Icons : http://www.onlinewebfonts.com/icon -->
<!DOCTYPE svg PUBLIC "-//W3C//DTD SVG 1.1//EN" "http://www.w3.org/Graphics/SVG/1.1/DTD/svg11.dtd">
<svg version="1.1" xmlns="http://www.w3.org/2000/svg" xmlns:xlink="http://www.w3.org/1999/xlink" x="0px" y="0px" viewBox="0 0 1000 1000" enable-background="new 0 0 1000 1000" xml:space="preserve">
<metadata> Svg Vector Icons : http://www.onlinewebfonts.com/icon </metadata>
<g><g transform="translate(0.000000,512.000000) scale(0.100000,-0.100000)"><path d="M4519.6,5007.7C2873.1,4850.6,1498.8,3995.7,906.5,2761.3c-118.8-249.2-184-442.8-243.4-713c-34.5-159.1-42.2-256.8-42.2-548.2c0-392.9,32.6-598,145.7-929.6C1090.5-378.4,1932-1204.5,3020.7-1643.5c97.8-40.3,180.2-74.8,184-78.6s-237.7-590.4-532.9-1301.5c-333.5-799.3-532.9-1297.7-519.4-1305.3c9.6-7.7,373.8-109.3,805-226.2c433.2-116.9,799.3-218.5,816.5-224.2c24.9-7.7,46,44.1,111.2,281.7c44.1,159.1,76.7,293.3,72.8,299c-5.8,3.8-228.1,69-494.5,141.8c-264.5,70.9-484.9,134.2-488.8,138c-9.6,9.6,812.7,1991.5,831.9,2010.7c7.7,5.7,95.8-3.8,195.5-24.9c352.7-69,730.3-99.7,1130.9-88.2c205.1,5.7,385.3,13.4,400.6,17.3c21.1,3.8,159.1-295.2,498.4-1073.4c297.1-680.4,479.2-1077.2,494.5-1073.4c44.1,9.6,1460.6,868.3,1462.5,885.6c0,13.4-276,483-299,507.9c-3.8,3.8-205.1-111.2-448.5-256.8c-243.5-145.7-444.7-260.7-450.4-256.9c-3.9,5.8-139.9,314.4-302.9,688.1c-254.9,580.8-293.2,682.4-266.4,693.9c19.2,7.6,132.3,40.2,253,72.8c448.5,124.6,908.6,333.5,1305.3,596.1c835.7,552,1366.7,1291.9,1554.5,2171.7c59.4,277.9,59.4,818.5,0,1096.4c-195.5,912.4-772.4,1688.7-1663.7,2246.4c-546.3,341.2-1184.6,567.4-1895.7,674.7C5466.5,5015.4,4814.8,5034.6,4519.6,5007.7z M4730.5,3451.3c452.4-136.1,770.5-657.5,772.5-1270.8c3.8-561.6-249.2-1042.7-653.6-1240.2c-120.8-59.4-138-63.3-339.3-63.3c-201.3,0-218.5,3.8-345,65.2c-262.6,128.4-475.4,408.3-588.4,768.6c-38.3,126.5-44.1,182.1-44.1,460c0,277.9,5.7,333.5,44.1,460C3772.1,3252,4253.2,3593.2,4730.5,3451.3z M7116.8,3436c607.6-207,912.4-1107.9,630.6-1855.4c-120.8-323.9-364.2-582.7-636.4-676.6c-86.3-30.7-145.7-38.3-283.7-32.6c-157.2,5.7-191.7,15.3-320.1,78.6c-272.2,134.2-504.1,454.3-599.9,828c-51.8,197.4-47.9,617.2,7.7,820.4c122.7,450.4,462,814.6,812.7,874C6852.3,3493.5,6990.4,3480.1,7116.8,3436z"/><path d="M4404.6,3165.7c-166.8-32.6-346.9-197.4-458.1-415.9c-118.8-233.8-153.3-642.1-78.6-931.5c187.8-738,883.6-876,1198-235.8c97.8,201.3,132.2,352.7,130.3,588.4C5196.2,2791.9,4832,3248.1,4404.6,3165.7z M4761.1,2650.1c78.6-49.8,151.4-161,191.7-299c61.3-214.7-1.9-479.2-147.6-609.5c-180.2-164.8-392.9-113.1-525.2,124.6c-53.7,95.8-57.5,116.9-57.5,304.8c0,180.2,5.7,210.8,51.8,297.1C4391.2,2688.4,4581,2759.4,4761.1,2650.1z"/><path d="M6743.1,3161.9c-266.4-72.8-471.5-343.1-548.2-722.6c-101.6-502.2,111.2-1069.6,460-1228.7c118.8-53.7,304.7-47.9,427.4,11.5c431.3,214.7,601.9,971.8,341.2,1518.1C7274,3058.4,6994.2,3230.9,6743.1,3161.9z M7045.9,2678.9c95.8-40.3,151.4-95.8,210.8-210.8c46-86.3,51.8-116.9,51.8-297.1c0-182.1-5.8-210.8-51.8-299c-164.8-314.4-502.2-295.2-649.7,36.4c-65.2,147.6-63.3,385.3,3.8,531C6714.3,2659.7,6877.2,2747.9,7045.9,2678.9z"/></g></g>
</svg>