<?xml version="1.0" encoding="utf-8"?>
<!-- Generator: Adobe Illustrator 23.0.3, SVG Export Plug-In . SVG Version: 6.00 Build 0)  -->
<svg version="1.1" id="图层_1" xmlns="http://www.w3.org/2000/svg" xmlns:xlink="http://www.w3.org/1999/xlink" x="0px" y="0px"
	 viewBox="0 0 196 186.8" style="enable-background:new 0 0 196 186.8;" xml:space="preserve">
<style type="text/css">
	.st0{fill:url(#SVGID_1_);}
	.st1{fill:url(#SVGID_2_);}
</style>
<g>
	<g>
		
			<linearGradient id="SVGID_1_" gradientUnits="userSpaceOnUse" x1="204.2025" y1="116.6119" x2="90.2846" y2="182.3825" gradientTransform="matrix(0.9533 0.302 0.302 -0.9533 -64.0799 200.1218)">
			<stop  offset="5.291006e-03" style="stop-color:#F63444"/>
			<stop  offset="1" style="stop-color:#F85D63"/>
		</linearGradient>
		<path class="st0" d="M147.5,58.9l-19.1,16.4c-7.2-8.3-13.1-13.1-17.7-14.5c-4.5-1.4-9.1-0.5-13.6,2.6c-6.4,4.4-9,10.5-7.8,18.3
			c1.2,7.8,6.8,19.1,16.9,33.8c15.8,23,29.8,30.3,41.9,21.9c9.3-6.4,9.4-17.5,0.2-33.2L170.2,92c14.8,27.4,10.9,48.9-11.5,64.3
			c-13.3,9.1-26.4,11.1-39.4,6c-13-5.2-25.3-16.2-36.9-33.1c-12.2-17.8-18.1-33.7-17.6-47.7c0.5-14,7.3-25.6,20.5-34.7
			C106.7,32.1,127.4,36.1,147.5,58.9z"/>
	</g>
</g>
<g>
	<title>cu</title>
	<g>
		
			<linearGradient id="SVGID_2_" gradientUnits="userSpaceOnUse" x1="80.7411" y1="19.3702" x2="80.7411" y2="163.2249" gradientTransform="matrix(1 0 0 -1 0 188)">
			<stop  offset="5.291006e-03" style="stop-color:#0C6AFF"/>
			<stop  offset="1" style="stop-color:#28C8FF"/>
		</linearGradient>
		<path class="st1" d="M143.9,94.8l-20.8-8.2c3.3-7.6,4.6-14.2,4-19.7s-3.6-10.5-8.9-15.1c-4.9-4.2-10-6-15.2-5.4
			c-5.2,0.6-9.4,2.8-12.6,6.6c-3.6,4.2-4.9,8.8-4,13.8S90.8,80,96.8,91.2c5.2,9.5,8.7,17.4,10.5,23.6s2.2,12.7,0.9,19.3
			c-1.3,6.7-4.4,12.9-9.4,18.8c-8.2,9.5-18.5,14.7-31,15.6s-24.8-3.8-36.9-14.3c-20.9-18-24.8-39.7-11.6-65.1l20.8,9.7
			c-9,16.5-7.4,30,4.9,40.6c6,5.2,11.9,7.6,17.8,7.1s10.7-2.9,14.6-7.5c2.9-3.4,4.5-7.4,4.8-12.2s-2.4-12.4-8.2-23
			c-6.1-11.2-10.2-19.8-12.1-25.6c-2-5.8-2.4-12.3-1.2-19.3c1.2-7.1,4.3-13.6,9.4-19.5c7.8-9,17.4-13.9,28.9-14.6
			c11.6-0.7,22.5,3.4,32.9,12.3C150.6,53,154.5,72.2,143.9,94.8z"/>
	</g>
</g>
</svg>
